<svg id="Layer_1" data-name="Layer 1" xmlns="http://www.w3.org/2000/svg" viewBox="0 0 500 500"><defs><style>.cls-1{fill:#f9d841;}.cls-2{fill:#faac29;}.cls-3,.cls-5{fill:none;stroke-linecap:round;stroke-linejoin:round;stroke-width:20px;}.cls-3{stroke:#000;}.cls-4{fill:#fcb72d;}.cls-5{stroke:#fff;}.cls-6{fill:#fff;}</style></defs><title>lemon</title><path class="cls-1" d="M401.09,401.09c59.52-59.53,85.28-138.62,75.61-209.91h0s-8.41-64.64,2.7-94.27h0c15.62-26.15,7.33-49.59-9.71-66.64s-40.49-25.33-66.64-9.71h0c-29.63,11.11-94.27,2.7-94.27,2.7v0C237.53,13.63,158.44,39.39,98.91,98.91S13.63,237.53,23.3,308.82h0s8.41,64.64-2.7,94.27h0c-15.62,26.15-7.33,49.59,9.71,66.64s40.49,25.33,66.64,9.71h0c29.63-11.11,94.27-2.7,94.27-2.7v0C262.47,486.37,341.56,460.62,401.09,401.09Z"/><path class="cls-2" d="M469.73,30.27a72.4,72.4,0,0,0-10.34-8.62c5.66,13.57,5.49,29.22-4.53,46-11.12,29.63-2.7,94.27-2.7,94.27h0c9.67,71.28-16.09,150.37-75.62,209.9s-138.62,85.29-209.9,75.62v0s-64.64-8.42-94.27,2.7c-21.21,12.66-40.63,9.6-56.3-1.09a64.72,64.72,0,0,0,14.24,20.64c17.05,17,40.49,25.33,66.64,9.71,29.63-11.11,94.27-2.7,94.27-2.7v0c71.29,9.67,150.38-16.08,209.91-75.61s85.28-138.62,75.61-209.91h0s-8.41-64.64,2.7-94.27C495.06,70.76,486.77,47.32,469.73,30.27Z"/><path class="cls-3" d="M401.09,401.09c59.52-59.53,85.28-138.62,75.61-209.91h0s-8.41-64.64,2.7-94.27h0c15.62-26.15,7.33-49.59-9.71-66.64s-40.49-25.33-66.64-9.71h0c-29.63,11.11-94.27,2.7-94.27,2.7v0C237.53,13.63,158.44,39.39,98.91,98.91S13.63,237.53,23.3,308.82h0s8.41,64.64-2.7,94.27h0c-15.62,26.15-7.33,49.59,9.71,66.64s40.49,25.33,66.64,9.71h0c29.63-11.11,94.27-2.7,94.27-2.7v0C262.47,486.37,341.56,460.62,401.09,401.09Z"/><circle class="cls-4" cx="222.19" cy="360.16" r="16.81"/><circle class="cls-4" cx="265.67" cy="331.38" r="16.81"/><circle class="cls-4" cx="252.18" cy="391.35" r="16.81"/><circle class="cls-4" cx="297.68" cy="364.41" r="21.06"/><circle class="cls-4" cx="348.05" cy="343.35" r="16.19"/><circle class="cls-4" cx="379.92" cy="310.33" r="15.68"/><circle class="cls-4" cx="161.38" cy="423.82" r="15.68"/><circle class="cls-4" cx="205.38" cy="408.16" r="15.68"/><circle class="cls-4" cx="314.13" cy="309.93" r="17.62"/><path class="cls-5" d="M191.24,84.22A275.17,275.17,0,0,0,76,207.46"/><circle class="cls-6" cx="227.57" cy="68.86" r="15.37"/></svg>