<svg xmlns="http://www.w3.org/2000/svg" xmlns:xlink="http://www.w3.org/1999/xlink" width="400" height="229" viewBox="0 0 400 229">
  <defs>
    <clipPath id="clip-drawneye">
      <rect width="400" height="229"/>
    </clipPath>
  </defs>
  <g id="drawneye" clip-path="url(#clip-drawneye)">
    <rect width="400" height="229" fill="#fff"/>
    <g id="Group_8" data-name="Group 8" transform="translate(-57.892 -107.261)">
      <g id="Ellipse_1" data-name="Ellipse 1" transform="translate(298.892 297.261)" stroke="#000" stroke-width="1">
        <circle cx="10.5" cy="10.5" r="10.5" stroke="none"/>
        <circle cx="10.5" cy="10.5" r="10" fill="none"/>
      </g>
      <path id="bottom" d="M3044.892,194.2l9.867,16.814s36.287,14.6,68.026,14.4,67.668-15.119,67.668-15.119L3199.3,194.2s-49.859,20.977-76.513,19.756-60.021-13.632-60.021-13.632" transform="translate(-2816.407 66.282)"/>
      <path id="top" d="M2961.951,175.5s19.427,30.016,53.279,34.34c14.546,2.917,54.325,8.342,91.987-29.87,12.069-9.834,22.071-19.45,47.382-28.161s48.191-8.37,71.074-3.576,42.019,13.857,56.323,25.032,21.9,19.221,31.737,30.843S3343.8,207.6,3343.8,207.6s-2.628-3.89-24.252-29.867c-11.025-11.948-18.822-19.587-29.806-26.034-11.292-6.631-23.533-12.308-41.268-18.22-33.525-11.175-70.18-11.622-93.871-4.47s-46.488,19.668-67.5,40.23-35.761,32.184-66.157,25.032A456.776,456.776,0,0,1,2961.951,175.5Z" transform="translate(-2895 0)"/>
    </g>
  </g>
</svg>
